<svg width="18" height="19" viewBox="0 0 18 19" fill="none" xmlns="http://www.w3.org/2000/svg">
<g clip-path="url(#clip0)">
<path d="M15.75 2.95793H14.0625V1.31004C14.0625 1.00683 13.8105 0.760742 13.5 0.760742H3.375C2.44462 0.760742 1.6875 1.50009 1.6875 2.40863V16.141C1.6875 17.3528 2.69662 18.3382 3.9375 18.3382H15.75C16.0605 18.3382 16.3125 18.0921 16.3125 17.7889V3.50722C16.3125 3.20401 16.0605 2.95793 15.75 2.95793ZM9.4185 15.9587C9.31162 16.074 9.15975 16.141 9 16.141C8.84025 16.141 8.68837 16.074 8.5815 15.9587C8.2215 15.5665 5.0625 12.0718 5.0625 10.0988C5.0625 7.97849 6.82875 6.2537 9 6.2537C11.1713 6.2537 12.9375 7.97849 12.9375 10.0988C12.9375 12.0718 9.7785 15.5665 9.4185 15.9587ZM12.9375 2.95793H3.375C3.0645 2.95793 2.8125 2.71184 2.8125 2.40863C2.8125 2.10542 3.0645 1.85933 3.375 1.85933H12.9375V2.95793Z" fill="#737373"/>
<path d="M9 11.7465C9.93198 11.7465 10.6875 11.0087 10.6875 10.0986C10.6875 9.18847 9.93198 8.45068 9 8.45068C8.06802 8.45068 7.3125 9.18847 7.3125 10.0986C7.3125 11.0087 8.06802 11.7465 9 11.7465Z" fill="#737373"/>
</g>
<defs>
<clipPath id="clip0">
<rect width="18" height="17.5775" fill="white" transform="translate(0 0.760742)"/>
</clipPath>
</defs>
</svg>
