<svg width="18" height="19" viewBox="0 0 18 19" fill="none" xmlns="http://www.w3.org/2000/svg">
<path d="M16.875 4.48389H1.125C0.504 4.48389 0 4.97606 0 5.58248V6.20758L9 9.92961L18 6.20648V5.58248C18 4.97606 17.496 4.48389 16.875 4.48389Z" fill="#737373"/>
<path d="M9.21937 11.0312C9.14962 11.0609 9.07425 11.0752 9 11.0752C8.92575 11.0752 8.85038 11.0609 8.78062 11.0312L0 7.40039V15.4695C0 16.076 0.504 16.5681 1.125 16.5681H16.875C17.496 16.5681 18 16.076 18 15.4695V7.40039L9.21937 11.0312Z" fill="#737373"/>
<path d="M15.75 2.28662H2.25C1.629 2.28662 1.125 2.77879 1.125 3.38521H16.875C16.875 2.77879 16.371 2.28662 15.75 2.28662Z" fill="#737373"/>
</svg>
