<svg width="60" height="60" viewBox="0 0 60 60" fill="none" xmlns="http://www.w3.org/2000/svg">
<rect x="3.60001" y="30" width="6" height="22.3636" rx="3" fill="#C4C4C4"/>
<rect x="10.4348" y="22.7027" width="9.3913" height="37.2973" rx="4.69565" fill="#C4C4C4"/>
<rect x="50.4" y="30" width="6" height="22.3636" rx="3" fill="#C4C4C4"/>
<rect x="40.1739" y="22.7027" width="9.3913" height="37.2973" rx="4.69565" fill="#C4C4C4"/>
<rect x="18.2609" y="38.3784" width="22.9565" height="4.86486" fill="#C4C4C4"/>
<path d="M19.7154 5.08H21.1154V7.4C20.7954 7.62933 20.4274 7.80533 20.0114 7.928C19.5954 8.05067 19.1794 8.112 18.7634 8.112C18.1768 8.112 17.6488 7.98933 17.1794 7.744C16.7101 7.49333 16.3421 7.14667 16.0754 6.704C15.8088 6.26133 15.6754 5.76 15.6754 5.2C15.6754 4.64 15.8088 4.13867 16.0754 3.696C16.3421 3.25333 16.7128 2.90933 17.1874 2.664C17.6621 2.41333 18.1981 2.288 18.7954 2.288C19.3181 2.288 19.7874 2.376 20.2034 2.552C20.6194 2.728 20.9661 2.98133 21.2434 3.312L20.2354 4.224C19.8568 3.808 19.4034 3.6 18.8754 3.6C18.3954 3.6 18.0088 3.74667 17.7154 4.04C17.4221 4.328 17.2754 4.71467 17.2754 5.2C17.2754 5.50933 17.3421 5.78667 17.4754 6.032C17.6088 6.272 17.7954 6.46133 18.0354 6.6C18.2754 6.73333 18.5501 6.8 18.8594 6.8C19.1634 6.8 19.4488 6.73867 19.7154 6.616V5.08ZM26.6477 6.512H25.7837V8H24.1997V2.4H26.7597C27.2664 2.4 27.7064 2.48533 28.0797 2.656C28.453 2.82133 28.741 3.06133 28.9437 3.376C29.1464 3.68533 29.2477 4.05067 29.2477 4.472C29.2477 4.87733 29.1517 5.232 28.9597 5.536C28.773 5.83467 28.5037 6.06933 28.1517 6.24L29.3597 8H27.6637L26.6477 6.512ZM27.6477 4.472C27.6477 4.21067 27.565 4.008 27.3997 3.864C27.2344 3.72 26.989 3.648 26.6637 3.648H25.7837V5.288H26.6637C26.989 5.288 27.2344 5.21867 27.3997 5.08C27.565 4.936 27.6477 4.73333 27.6477 4.472ZM36.6976 6.776V8H32.2016V2.4H36.5936V3.624H33.7696V4.568H36.2576V5.752H33.7696V6.776H36.6976ZM42.6097 5.992V8H41.0257V5.968L38.8897 2.4H40.5617L41.8897 4.624L43.2177 2.4H44.7537L42.6097 5.992ZM22.5758 15.08H23.9758V17.4C23.6558 17.6293 23.2878 17.8053 22.8718 17.928C22.4558 18.0507 22.0398 18.112 21.6238 18.112C21.0371 18.112 20.5091 17.9893 20.0398 17.744C19.5704 17.4933 19.2024 17.1467 18.9358 16.704C18.6691 16.2613 18.5358 15.76 18.5358 15.2C18.5358 14.64 18.6691 14.1387 18.9358 13.696C19.2024 13.2533 19.5731 12.9093 20.0478 12.664C20.5224 12.4133 21.0584 12.288 21.6558 12.288C22.1784 12.288 22.6478 12.376 23.0638 12.552C23.4798 12.728 23.8264 12.9813 24.1038 13.312L23.0958 14.224C22.7171 13.808 22.2638 13.6 21.7358 13.6C21.2558 13.6 20.8691 13.7467 20.5758 14.04C20.2824 14.328 20.1358 14.7147 20.1358 15.2C20.1358 15.5093 20.2024 15.7867 20.3358 16.032C20.4691 16.272 20.6558 16.4613 20.8958 16.6C21.1358 16.7333 21.4104 16.8 21.7198 16.8C22.0238 16.8 22.3091 16.7387 22.5758 16.616V15.08ZM30.06 15.992V18H28.476V15.968L26.34 12.4H28.012L29.34 14.624L30.668 12.4H32.204L30.06 15.992ZM39.7194 18L39.7034 15.032L38.2634 17.448H37.5594L36.1274 15.112V18H34.6634V12.4H35.9674L37.9354 15.632L39.8554 12.4H41.1594L41.1754 18H39.7194Z" fill="#C4C4C4"/>
</svg>
