<svg width="17" height="18" viewBox="0 0 17 18" fill="none" xmlns="http://www.w3.org/2000/svg">
<path d="M16.6926 4.85957C14.4691 2.80245 11.56 1.66943 8.5 1.66943C5.44 1.66943 2.53087 2.80245 0.300322 4.86651C0.10625 5.05603 0 5.30987 0 5.58103C0 5.85495 0.111928 6.11573 0.300322 6.28933L1.98402 7.93282C2.37147 8.31117 3.07414 8.30011 3.43184 7.94874C3.95884 7.47286 4.53897 7.07858 5.15166 6.77977C5.53134 6.60131 5.66661 6.16278 5.66661 5.81276V3.99635C6.57043 3.75911 7.59681 3.73764 8.49993 3.73764C9.45688 3.73764 10.4578 3.75908 11.3333 3.99428V5.81276C11.3333 6.27204 11.5231 6.6359 11.8376 6.78531C12.4786 7.09797 13.0602 7.49153 13.5645 7.95292C13.7572 8.1307 14.0193 8.23306 14.2835 8.23306C14.5618 8.23306 14.8218 8.12863 15.0159 7.93979L16.6996 6.29562C16.893 6.10746 16.9999 5.85294 16.9999 5.58109C17 5.30987 16.8937 5.05603 16.6926 4.85957Z" fill="#737373"/>
<path d="M8.5 5.81299C6.15612 5.81299 4.25 7.67437 4.25 9.96322C4.25 12.2521 6.15612 14.1135 8.5 14.1135C8.53188 14.1135 8.56375 14.1114 8.6275 14.1066C8.76068 14.1031 8.88037 14.027 8.93775 13.9094C8.99512 13.7918 8.97955 13.6528 8.89807 13.549C8.63032 13.2101 8.5 12.829 8.5 12.3842C8.5 12.0155 8.7033 11.6717 9.02982 11.4863C9.35139 11.3037 9.76789 11.303 10.0909 11.4836C10.3941 11.6537 10.5988 11.6731 10.727 11.6731C10.9416 11.6731 11.1562 11.6088 11.4119 11.532C11.6733 11.4538 11.9538 11.375 12.2662 11.3556C12.4156 11.3459 12.5431 11.2463 12.5842 11.1059C12.694 10.7282 12.75 10.3443 12.75 9.96319C12.75 7.67505 10.8439 5.81299 8.5 5.81299ZM8.5 11.3466C7.7187 11.3466 7.08332 10.7262 7.08332 9.96319C7.08332 9.20023 7.7187 8.57977 8.5 8.57977C9.2813 8.57977 9.91668 9.20023 9.91668 9.96319C9.91668 10.7262 9.2813 11.3466 8.5 11.3466Z" fill="#737373"/>
<path d="M8.4999 10.6549C8.8911 10.6549 9.20823 10.3452 9.20823 9.96318C9.20823 9.58117 8.8911 9.27148 8.4999 9.27148C8.10871 9.27148 7.79158 9.58117 7.79158 9.96318C7.79158 10.3452 8.10871 10.6549 8.4999 10.6549Z" fill="#737373"/>
<path d="M8.4999 10.6549C8.8911 10.6549 9.20823 10.3452 9.20823 9.96318C9.20823 9.58117 8.8911 9.27148 8.4999 9.27148C8.10871 9.27148 7.79158 9.58117 7.79158 9.96318C7.79158 10.3452 8.10871 10.6549 8.4999 10.6549Z" fill="#737373"/>
<path d="M12.3959 12.0381C12.1339 12.0381 11.8845 12.1135 11.6203 12.193C11.0558 12.3632 10.4098 12.4593 9.73826 12.0845C9.62845 12.0229 9.49388 12.0229 9.38481 12.0851C9.27574 12.1467 9.20844 12.2608 9.20844 12.3839C9.20844 14.0171 12.0644 14.1084 12.3903 14.1132C12.3917 14.1132 12.3938 14.1132 12.3959 14.1132C12.4887 14.1132 12.578 14.0772 12.6446 14.0136C12.7119 13.9493 12.7501 13.86 12.7501 13.7673V12.3839C12.7501 12.193 12.5914 12.0381 12.3959 12.0381Z" fill="#737373"/>
<path d="M15.1722 11.4997L14.1643 9.53112C14.1572 9.4156 14.136 9.29731 14.0991 9.16382C14.0502 8.98812 13.8717 8.87953 13.6862 8.9162C13.5034 8.95288 13.3809 9.12164 13.4064 9.30218C13.4425 9.55466 13.4588 9.76493 13.4588 9.96346C13.4588 10.4719 13.3745 10.9796 13.2095 11.4741C13.174 11.5786 13.1925 11.6934 13.2576 11.7827C13.3894 11.9618 13.4588 12.17 13.4588 12.3844V13.7679C13.4588 14.0439 13.3434 14.3136 13.1422 14.5073C12.9417 14.6996 12.6775 14.8054 12.38 14.8054C11.6887 14.7951 11.0151 14.6906 10.4314 14.5039C10.3563 14.4796 10.2748 14.481 10.1991 14.5073C9.64514 14.7051 9.07425 14.8055 8.5005 14.8055C5.76632 14.8055 3.54218 12.6335 3.54218 9.96352C3.54218 9.76499 3.55848 9.55473 3.5946 9.30156C3.6201 9.12103 3.49755 8.95226 3.3148 8.91559C3.13487 8.87963 2.95143 8.98754 2.90185 9.16321C2.86503 9.29602 2.84305 9.41498 2.83668 9.5305L1.82873 11.4991C1.55955 12.0255 1.41718 12.6135 1.41718 13.2014V15.8437C1.41718 16.0346 1.57585 16.1896 1.77135 16.1896H15.2297C15.4252 16.1896 15.5839 16.0346 15.5839 15.8437V13.2014C15.5838 12.6134 15.4414 12.0254 15.1722 11.4997Z" fill="#737373"/>
</svg>
