<?xml version="1.0" standalone="no"?>
<!DOCTYPE svg PUBLIC "-//W3C//DTD SVG 20010904//EN"
 "http://www.w3.org/TR/2001/REC-SVG-20010904/DTD/svg10.dtd">
<svg version="1.0" xmlns="http://www.w3.org/2000/svg"
 width="700.000000pt" height="700.000000pt" viewBox="0 0 700.000000 700.000000"
 preserveAspectRatio="xMidYMid meet">
<metadata>
Created by potrace 1.11, written by Peter Selinger 2001-2013
</metadata>
<g transform="translate(0.000000,700.000000) scale(0.100000,-0.100000)"
fill="#000000" stroke="none">
<path d="M2047 6706 c-31 -13 -73 -36 -93 -51 -159 -121 -166 -376 -15 -513
109 -98 309 -115 462 -39 l64 32 0 125 c0 69 -1 131 -3 138 -3 8 -29 12 -83
12 l-79 0 0 -90 c0 -89 0 -91 -27 -101 -42 -16 -117 -13 -158 6 -136 65 -130
282 11 341 66 28 159 11 211 -38 l22 -20 61 53 62 54 -34 28 c-67 58 -133 81
-243 84 -86 2 -108 -1 -158 -21z"/>
<path d="M2824 6393 l1 -326 70 1 c39 0 80 1 93 1 21 1 22 5 22 86 l0 85 50 0
49 0 59 -87 59 -88 93 2 c51 2 94 4 96 6 2 1 -27 47 -63 100 l-67 97 24 17
c43 30 77 73 89 112 17 57 13 131 -9 176 -56 117 -133 145 -396 145 l-171 0 1
-327z m356 167 c28 -15 50 -67 43 -102 -3 -14 -16 -37 -29 -49 -21 -20 -36
-23 -102 -23 l-77 -1 -3 96 -3 96 75 -3 c41 -1 85 -8 96 -14z"/>
<path d="M3758 6713 c-2 -5 -3 -151 -3 -326 l1 -319 261 -1 261 -2 4 35 c2 19
2 52 0 73 l-3 37 -170 0 -169 0 0 60 0 60 145 0 145 0 0 71 0 70 -97 -1 c-54
-1 -119 -1 -145 -1 l-48 1 0 54 0 54 123 0 c67 0 141 1 165 1 l42 1 0 70 0 70
-254 0 c-140 0 -256 -3 -258 -7z"/>
<path d="M4563 6678 c39 -70 178 -300 201 -333 18 -26 21 -45 21 -152 0 -121
0 -123 23 -124 28 -1 71 -1 122 0 l40 1 0 115 0 114 85 142 c47 78 85 144 85
147 0 3 6 13 13 21 8 9 26 37 41 64 l27 47 -90 0 -90 0 -53 -90 c-29 -49 -62
-106 -73 -125 -11 -19 -24 -34 -29 -32 -4 1 -40 57 -80 122 l-71 120 -98 3
-98 3 24 -43z"/>
<path d="M2467 5564 c-1 -1 -14 -5 -27 -8 -136 -27 -236 -119 -268 -246 -18
-69 -6 -167 28 -236 92 -186 360 -244 565 -122 l30 18 1 135 1 135 -81 0 -81
0 -2 -86 c0 -47 -6 -91 -12 -97 -15 -15 -127 -18 -160 -4 -114 48 -148 220
-61 307 62 62 176 68 253 14 l43 -31 57 52 c56 50 57 52 40 71 -52 58 -147 95
-253 98 -38 2 -71 2 -73 0z"/>
<path d="M3080 5548 c0 -5 133 -234 180 -308 65 -104 62 -95 63 -221 l0 -119
93 0 93 0 -1 118 c-1 125 -4 113 59 217 43 71 169 284 178 300 11 19 8 20 -69
18 -45 0 -86 -2 -92 -2 -6 -1 -24 -25 -39 -53 -16 -29 -31 -55 -34 -58 -6 -5
-13 -18 -53 -89 -37 -67 -29 -75 -163 159 l-25 45 -95 0 c-52 0 -95 -3 -95 -7z"/>
<path d="M4065 5551 c-20 -6 -21 -13 -20 -326 l0 -320 85 0 85 0 0 162 c0 89
3 159 6 155 4 -4 38 -56 74 -117 37 -60 73 -117 79 -125 12 -17 80 -20 94 -5
5 6 44 68 86 140 l76 129 1 -79 c1 -44 1 -122 1 -172 l1 -93 86 0 86 0 -2 312
c-1 172 -2 320 -2 328 -1 13 -15 16 -77 14 -41 -1 -76 -4 -78 -6 -1 -1 -51
-85 -110 -186 -60 -100 -110 -181 -112 -179 -6 6 -168 271 -182 297 -31 60
-45 70 -102 73 -30 2 -64 1 -75 -2z"/>
<path d="M1630 4333 c-196 -49 -354 -212 -400 -413 -10 -42 -13 -418 -13
-1730 0 -922 4 -1699 8 -1726 29 -197 172 -367 366 -435 52 -19 85 -23 179
-23 103 0 122 3 185 29 88 35 147 75 208 139 74 78 127 182 143 284 4 21 6
359 6 752 0 393 2 722 4 730 3 13 143 15 1186 15 l1183 0 1 -730 c1 -535 5
-746 14 -790 51 -249 276 -432 534 -433 149 0 288 58 396 167 70 70 130 194
145 296 4 28 7 804 8 1725 0 1538 -2 1680 -17 1740 -28 106 -72 185 -146 259
-214 215 -556 216 -769 2 -72 -72 -129 -173 -151 -270 -10 -40 -13 -228 -13
-726 l0 -672 -1187 0 -1187 0 0 662 c0 363 -3 679 -8 701 -4 21 -9 50 -12 64
-11 64 -75 171 -141 237 -139 139 -333 194 -522 146z"/>
<path d="M672 3485 c-115 -32 -218 -139 -241 -249 -3 -17 -6 -492 -6 -1056 l0
-1025 27 -58 c34 -72 104 -142 177 -176 80 -37 202 -37 281 0 81 39 134 90
172 167 l33 67 0 1040 0 1040 -26 56 c-75 160 -249 241 -417 194z"/>
<path d="M6124 3484 c-66 -20 -141 -77 -182 -138 -65 -98 -63 -47 -60 -1172
l3 -1019 33 -67 c38 -77 91 -128 172 -167 78 -37 201 -37 280 1 81 38 134 89
172 166 l33 67 0 1045 0 1045 -28 53 c-39 75 -87 124 -158 162 -75 40 -182 49
-265 24z"/>
</g>
</svg>
