<svg width="20" height="20" viewBox="0 0 20 20" fill="none" xmlns="http://www.w3.org/2000/svg">
<g clip-path="url(#clip0)">
<path d="M7.2923 14.6768V18.5418C7.2923 18.8118 7.46563 19.0509 7.7223 19.1359C7.78646 19.1568 7.8523 19.1668 7.9173 19.1668C8.1123 19.1668 8.30063 19.0751 8.42063 18.9118L10.6815 15.8351L7.2923 14.6768Z" fill="#737373"/>
<path d="M19.7366 0.114931C19.5449 -0.0209027 19.2932 -0.0392361 19.0849 0.0699306L0.334894 9.8616C0.113227 9.97743 -0.0176062 10.2141 0.000727169 10.4633C0.0198938 10.7133 0.185727 10.9266 0.421561 11.0074L5.63406 12.7891L16.7349 3.29743L8.14489 13.6466L16.8807 16.6324C16.9457 16.6541 17.0141 16.6658 17.0824 16.6658C17.1957 16.6658 17.3082 16.6349 17.4074 16.5749C17.5657 16.4783 17.6732 16.3158 17.7007 16.1333L19.9924 0.716597C20.0266 0.483264 19.9282 0.251597 19.7366 0.114931Z" fill="#737373"/>
</g>
<defs>
<clipPath id="clip0">
<rect width="20" height="20" fill="white"/>
</clipPath>
</defs>
</svg>
